Coordinates
version=1
nRows=13
nColumns=38
inDegrees=no

Units are S.I. units (second, meters, Newtons, ...)
If the header above contains a line with 'inDegrees', this indicates whether rotational values are in degrees (yes) or radians (no).

endheader
time	pelvis_tilt	pelvis_list	pelvis_rotation	pelvis_tx	pelvis_ty	pelvis_tz	hip_flexion_r	hip_adduction_r	hip_rotation_r	knee_angle_r	ankle_angle_r	subtalar_angle_r	mtp_angle_r	hip_flexion_l	hip_adduction_l	hip_rotation_l	knee_angle_l	ankle_angle_l	subtalar_angle_l	mtp_angle_l	lumbar_extension	lumbar_bending	lumbar_rotation	arm_flex_r	arm_add_r	arm_rot_r	elbow_flex_r	pro_sup_r	wrist_flex_r	wrist_dev_r	arm_flex_l	arm_add_l	arm_rot_l	elbow_flex_l	pro_sup_l	wrist_flex_l	wrist_dev_l
0.66	2.92732	1.35205	-1.22964	0.697344	0.194978	0.944154	0.333095	-0.0404664	-0.00825031	0.827009	-0.289918	0	0	-0.297615	-0.0335163	-0.134277	0.264906	-0.0644245	0	0	-0.444631	0.133307	-0.0409096	-0.117591	-0.610674	0.752889	0.868864	0.589672	0	0	-0.136911	-0.251501	0.165436	0.68818	1.33048	0	0
0.67	2.92289	1.35916	-1.22491	0.697337	0.203031	0.942683	0.334181	-0.0368828	0.00365449	0.760402	-0.269741	0	0	-0.299557	-0.0339909	-0.139173	0.266304	-0.0572954	0	0	-0.438579	0.13214	-0.0383351	-0.117929	-0.609159	0.75113	0.866742	0.589579	0	0	-0.129805	-0.253205	0.176087	0.682947	1.32497	0	0
0.68	2.91683	1.36643	-1.21899	0.697367	0.211223	0.941139	0.332293	-0.0326777	0.0148243	0.688063	-0.2506	0	0	-0.301169	-0.0347336	-0.144537	0.268115	-0.0506759	0	0	-0.432063	0.131108	-0.0354271	-0.11809	-0.607579	0.75044	0.863979	0.590964	0	0	-0.123207	-0.254401	0.185961	0.677401	1.32005	0	0
0.69	2.90723	1.37304	-1.20975	0.697396	0.219515	0.939665	0.326095	-0.027666	0.0262901	0.607323	-0.237574	0	0	-0.303052	-0.0363411	-0.151274	0.270276	-0.0447043	0	0	-0.426012	0.131032	-0.0323187	-0.118802	-0.606078	0.747611	0.861302	0.59091	0	0	-0.116434	-0.25438	0.194365	0.670605	1.31606	0	0
0.7	2.89445	1.37744	-1.19676	0.697312	0.227887	0.93843	0.312742	-0.0215618	0.0385399	0.515532	-0.233257	0	0	-0.306768	-0.0393284	-0.158664	0.272601	-0.03959	0	0	-0.421962	0.13274	-0.0291832	-0.11881	-0.605749	0.746677	0.859031	0.593	0	0	-0.10887	-0.253303	0.202135	0.662299	1.31319	0	0
0.71	2.82714	1.37981	-1.13489	0.6965	0.234739	0.9387	0.299611	-0.00461005	0.0561284	0.413322	-0.257001	0	0	-0.306271	-0.0485662	-0.16412	0.275231	-0.0369943	0	0	-0.421896	0.14653	-0.0157964	-0.114012	-0.609851	0.744834	0.853371	0.593791	0	0	-0.0860079	-0.239564	0.209457	0.630979	1.3182	0	0
0.72	2.8186	1.38165	-1.12439	0.696213	0.243578	0.937562	0.276031	-0.000122021	0.0610477	0.309796	-0.269841	0	0	-0.312943	-0.0518619	-0.170291	0.277626	-0.0329671	0	0	-0.419952	0.149147	-0.0142664	-0.117205	-0.610105	0.738759	0.853799	0.593536	0	0	-0.0797118	-0.237087	0.212692	0.622943	1.32107	0	0
0.73	2.81482	1.382	-1.11825	0.695979	0.252639	0.936441	0.252638	0.00366896	0.0549429	0.214741	-0.288449	0	0	-0.321466	-0.0551728	-0.176296	0.280533	-0.0288812	0	0	-0.419717	0.151535	-0.0136591	-0.120092	-0.610419	0.733971	0.854751	0.593956	0	0	-0.0750447	-0.235432	0.21521	0.617929	1.32168	0	0
0.74	2.81459	1.38078	-1.11507	0.695808	0.261904	0.935294	0.22991	0.00712057	0.0416488	0.131777	-0.312773	0	0	-0.331846	-0.0587423	-0.180079	0.283924	-0.0242379	0	0	-0.42095	0.154164	-0.0136708	-0.123508	-0.611051	0.729813	0.857129	0.595411	0	0	-0.0716919	-0.234796	0.218289	0.615524	1.32004	0	0
0.75	2.81591	1.38019	-1.11381	0.695792	0.271338	0.933956	0.212922	0.0102097	0.0291555	0.0719117	-0.330611	0	0	-0.341729	-0.0615075	-0.181018	0.287877	-0.0196367	0	0	-0.421438	0.155804	-0.0141382	-0.127446	-0.611565	0.724626	0.860213	0.596009	0	0	-0.0706181	-0.235488	0.221745	0.6159	1.31837	0	0
0.76	2.8184	1.37938	-1.11391	0.695876	0.280842	0.932634	0.200972	0.0131146	0.0164325	0.034354	-0.345052	0	0	-0.351741	-0.0639922	-0.179892	0.292211	-0.0147185	0	0	-0.422333	0.157233	-0.0143255	-0.131611	-0.612314	0.719959	0.864168	0.597166	0	0	-0.0698618	-0.236489	0.225288	0.617594	1.31439	0	0
0.77	2.8156	1.38023	-1.1101	0.696133	0.290404	0.931188	0.198035	0.0161106	0.00964746	0.0256547	-0.347833	0	0	-0.359579	-0.0661278	-0.177367	0.296771	-0.0124021	0	0	-0.421227	0.158089	-0.0144586	-0.13471	-0.612653	0.716498	0.867106	0.596779	0	0	-0.0707142	-0.237322	0.226857	0.619564	1.31293	0	0
0.78	2.80912	1.37922	-1.10279	0.696372	0.299982	0.929925	0.196679	0.0208916	0.00268391	0.0313657	-0.349241	0	0	-0.368749	-0.0696164	-0.173529	0.301978	-0.0095141	0	0	-0.421639	0.160365	-0.014308	-0.138092	-0.61361	0.711842	0.870964	0.595561	0	0	-0.0724592	-0.238277	0.228945	0.622364	1.313	0	0
